<svg version="1.2" xmlns="http://www.w3.org/2000/svg" viewBox="0 0 427 142" width="427" height="142">
	<title>按鈕</title>
	<style>
		.s0 { fill: #c9cacc } 
		.s1 { fill: #22a7ca } 
		.s2 { fill: #1e94cf } 
		.s3 { fill: #fefefe } 
		.s4 { fill: #292e3d } 
	</style>
	<g id="按鈕">
		<g id="&lt;Group&gt;">
			<g id="&lt;Group&gt;">
				<g id="-e-&lt;Group&gt;">
					<g id="&lt;Group&gt;" style="mix-blend-mode: multiply">
						<path id="&lt;Path&gt;" class="s0" d="m425.1 107.1l-7.7-7.8c-1-1-2.4-1.4-3.7-1.4-0.1-1.3-0.4-2.7-1-4-2.9-5.8-6.7-11.1-11.4-15.8l-13.6-13.6v-2.3q0 0 0 0v-2.8c0-26.3-21.3-47.6-47.6-47.6h-285.7c-26.3 0-47.6 21.3-47.6 47.6v17c0 14.7 6.6 27.7 17 36.5 1.7 1.4 3.6 2.7 5.5 3.9q1.8 1.2 3.7 2.1c6.5 3.3 13.7 5.1 21.4 5.1h285.7c6.7 0 13-1.3 18.8-3.8q0.3-0.2 0.6-0.3c7.6 4.1 15.4 6.9 23.2 8.1 0.2 0 0.4 0 0.6 0-0.1 1.4 0.3 2.9 1.4 4l7.8 7.7c1.9 2 5 2 7 0l25.6-25.6c2-1.9 2-5.1 0-7z"/>
					</g>
					<path id="&lt;Path&gt;" class="s1" d="m333.8 113h-285.7c-26.3 0-47.6-21.3-47.6-47.6v-17c0-26.3 21.3-47.6 47.6-47.6h285.7c26.3 0 47.6 21.3 47.6 47.6v17c0 26.3-21.3 47.6-47.6 47.6z"/>
					<path id="&lt;Path&gt;" class="s2" d="m333.8 98.8h-285.7c-26.3 0-47.6-21.3-47.6-47.6v14.2c0 26.3 21.3 47.6 47.6 47.6h285.7c26.3 0 47.6-21.3 47.6-47.6v-14.2c0 26.3-21.3 47.6-47.6 47.6z"/>
					<g id="&lt;Group&gt;">
						<g id="&lt;Group&gt;">
							<g id="&lt;Group&gt;">
								<path id="&lt;Path&gt;" class="s3" d="m371.7 53.1c-2.2 2.1-2.2 5.5-0.1 7.6l4.9 4.9-7.2-7.2c-2.1-2.1-5.6-2.3-7.8-0.2-2.2 2.1-2.3 5.7-0.1 7.8l5.8 5.9-8.2-8.2c-2.1-2.2-5.7-2.4-7.9-0.3-2.2 2.2-2.2 5.8 0 8l7.6 7.6-21.2-21.2c-5.5-5.5-9.3-5.3-11.6-2.9-2 2.3-1.8 6.1 0.3 8.3l32.6 32.5-2.6-2.6-10.1-1.8c-2.4-0.2-4.5 1.2-5.3 3.3q0 0-0.1 0.1c-1 2.8 1.9 5.4 4.4 7.2 9.3 6.9 20.1 12 31.5 13.7 2.5 0.3 4.9-0.5 6.6-2.2l20.4-20.4c2.5-2.5 3.1-6.3 1.5-9.4-2.8-5.7-6.6-11-11.1-15.5l-14.8-14.8c-2.1-2-5.4-2.2-7.5-0.2z"/>
								<path id="&lt;Compound Path&gt;" fill-rule="evenodd" class="s4" d="m404.6 94l-20.4 20.4c-2 2-4.9 3-7.8 2.6-10.9-1.6-22.1-6.4-32.2-13.9-1.6-1.2-6.4-4.7-4.8-8.9 1-2.8 3.8-4.6 6.8-4.3q0 0 0.1 0l5.6 1-26.7-26.7c-2.7-2.7-2.9-7.4-0.3-10.2 1.2-1.4 2.8-2.1 4.5-2.2 2.7 0 5.8 1.6 9.1 4.9l9.6 9.6c0.2-1.4 0.9-2.8 2-3.9 2.3-2.1 5.7-2.5 8.3-1 0.2-1.6 0.9-3.1 2.1-4.2 2.2-2.1 5.5-2.5 8.1-1 0.2-1.6 0.9-3 2.1-4.1 2.6-2.5 6.9-2.4 9.5 0.2l14.8 14.8c4.6 4.6 8.5 10 11.4 15.8 1.8 3.8 1.1 8.2-1.8 11.1zm-61.7-0.2q-0.5 0.6-0.8 1.3c-0.6 1.5 0.7 3.4 3.8 5.7 9.7 7.2 20.4 11.8 30.9 13.3 2 0.3 4-0.3 5.4-1.8l20.3-20.3c2.1-2 2.6-5.2 1.3-7.8-2.8-5.6-6.4-10.6-10.8-15.1l-14.8-14.7c-1.6-1.6-4-1.7-5.5-0.2-0.8 0.7-1.2 1.7-1.2 2.7 0 1.1 0.4 2.1 1.1 2.8l4.9 4.9c0.6 0.6 0.6 1.5 0 2.1-0.5 0.5-1.4 0.5-2 0l-7.2-7.3c-1.7-1.6-4.2-1.7-5.8-0.1-0.8 0.7-1.2 1.7-1.3 2.8 0 1.1 0.5 2.1 1.2 2.9l5.9 5.8c0.5 0.6 0.5 1.5 0 2.1-0.6 0.5-1.5 0.5-2.1 0l-8.2-8.2c-1.6-1.7-4.3-1.8-5.9-0.2-0.8 0.8-1.2 1.8-1.2 2.9 0 1.1 0.4 2.2 1.2 2.9l7.6 7.7c0.6 0.5 0.6 1.4 0 2-0.5 0.6-1.4 0.6-2 0l-21.2-21.2c-3.4-3.4-5.7-4.1-7-4.1q-1.4 0-2.5 1.2c-1.5 1.7-1.4 4.6 0.3 6.3l32.5 32.5c0.6 0.6 0.6 1.5 0 2.1-0.5 0.5-1.5 0.5-2 0l-2.3-2.3-9.6-1.8c-1.1 0-2.2 0.4-3 1.1z"/>
							</g>
							<g id="&lt;Group&gt;">
								<path id="&lt;Path&gt;" class="s1" d="m417.8 102.1l-25.6 25.6c-1.4 1.4-3.6 1.4-5 0l-7.8-7.7c-1.3-1.4-1.3-3.6 0-5l25.7-25.6c1.4-1.4 3.6-1.4 4.9 0l7.8 7.7c1.4 1.4 1.4 3.6 0 5z"/>
								<path id="&lt;Compound Path&gt;" fill-rule="evenodd" class="s4" d="m418.8 103.1l-25.6 25.6c-2 2-5.1 2-7 0l-7.8-7.7c-1.9-1.9-1.9-5.1 0-7l25.7-25.7c1.9-1.9 5-1.9 7 0l7.7 7.8c1.9 1.9 1.9 5.1 0 7zm-38.4 12.9c-0.8 0.8-0.8 2.1 0 3l7.8 7.7c0.8 0.8 2.1 0.8 2.9 0l25.7-25.6c0.8-0.8 0.8-2.2 0-3l-7.8-7.7c-0.8-0.8-2.1-0.8-2.9 0z"/>
							</g>
							<g id="&lt;Group&gt;">
								<path id="&lt;Path&gt;" class="s4" d="m409.4 97.7c-1.2-1.1-3.1-1.1-4.2 0-1.2 1.2-1.2 3.1 0 4.3 1.1 1.2 3 1.2 4.2 0 1.2-1.2 1.2-3.1 0-4.3z"/>
							</g>
						</g>
						<g id="&lt;Group&gt;">
							<g id="&lt;Group&gt;">
								<path id="&lt;Path&gt;" class="s4" d="m316.3 44.9c-0.7-0.5-1.7-0.5-2.2 0.1-0.6 0.7-0.6 1.7 0.1 2.3l4.3 3.9c0.6 0.6 1.6 0.5 2.2-0.1 0.6-0.7 0.5-1.7-0.1-2.2z"/>
							</g>
							<g id="&lt;Group&gt;">
								<path id="&lt;Path&gt;" class="s4" d="m315.5 59.5l-3.9 0.1c-0.9 0.1-1.6 0.8-1.5 1.7 0 0.8 0.7 1.5 1.6 1.5l3.9-0.2c0.5 0 0.9-0.2 1.1-0.5 0.3-0.3 0.4-0.7 0.4-1.2 0-0.8-0.7-1.5-1.6-1.4z"/>
							</g>
							<g id="&lt;Group&gt;">
								<path id="&lt;Path&gt;" class="s4" d="m319 69.6l-3.9 4.3c-0.6 0.6-0.5 1.6 0.1 2.2 0.6 0.6 1.6 0.5 2.2-0.1l3.9-4.3c0.6-0.7 0.6-1.7-0.1-2.2-0.6-0.6-1.6-0.6-2.2 0.1z"/>
							</g>
							<g id="&lt;Group&gt;">
								<path id="&lt;Path&gt;" class="s4" d="m329.4 74.1c-0.9 0-1.5 0.8-1.5 1.6l0.2 4.4c0.1 0.9 0.8 1.6 1.7 1.5 0.4 0 0.8-0.2 1-0.5 0.3-0.3 0.5-0.7 0.4-1.1l-0.2-4.4c0-0.9-0.7-1.6-1.6-1.5z"/>
							</g>
							<g id="&lt;Group&gt;">
								<path id="&lt;Path&gt;" class="s4" d="m350.2 56.2l-4.3 0.2c-0.8 0.1-1.5 0.8-1.5 1.7 0.1 0.8 0.8 1.5 1.7 1.5l4.2-0.2c0.5 0 0.8-0.2 1.1-0.5 0.3-0.3 0.4-0.7 0.4-1.2 0-0.8-0.8-1.5-1.6-1.5z"/>
							</g>
							<g id="&lt;Group&gt;">
								<path id="&lt;Path&gt;" class="s4" d="m345.4 42.9c-0.7-0.6-1.7-0.5-2.2 0.1l-4 4.3c-0.5 0.7-0.5 1.7 0.1 2.2 0.7 0.6 1.7 0.6 2.3-0.1l3.9-4.3c0.6-0.6 0.5-1.6-0.1-2.2z"/>
							</g>
							<g id="&lt;Group&gt;">
								<path id="&lt;Path&gt;" class="s4" d="m329.8 39.6c-0.8 0-1.5 0.7-1.5 1.6l0.2 3.9c0.1 0.9 0.8 1.5 1.7 1.5 0.4 0 0.8-0.2 1-0.5 0.3-0.3 0.5-0.7 0.5-1.1l-0.2-4c-0.1-0.8-0.8-1.5-1.7-1.4z"/>
							</g>
						</g>
					</g>
				</g>
			</g>
		</g>
	</g>
</svg>