<svg version="1.2" xmlns="http://www.w3.org/2000/svg" viewBox="0 0 451 150" width="451" height="150">
	<title>按鈕</title>
	<style>
		.s0 { fill: #c9cacc } 
		.s1 { fill: #d91b5b } 
		.s2 { fill: #600000 } 
		.s3 { fill: #fefefe } 
		.s4 { fill: #292e3d } 
	</style>
	<g id="按鈕">
		<g id="&lt;Group&gt;">
			<g id="&lt;Group&gt;">
				<g id="-e-&lt;Group&gt;">
					<g id="&lt;Group&gt;" style="mix-blend-mode: multiply">
						<path id="&lt;Path&gt;" class="s0" d="m448.9 113.2l-8.2-8.2c-1.1-1.1-2.5-1.6-4-1.5 0-1.5-0.3-2.9-1-4.2-3.1-6.2-7.1-11.9-12-16.8l-14.4-14.3v-2.5q0 0 0 0v-2.9c0-27.8-22.5-50.3-50.3-50.3h-301.7c-27.8 0-50.3 22.5-50.3 50.3v18c0 15.4 7 29.2 17.9 38.4 1.9 1.6 3.9 3 5.9 4.3q1.9 1.1 3.9 2.2c6.8 3.4 14.5 5.4 22.6 5.4h301.7c7.1 0 13.8-1.5 19.9-4.1q0.3-0.2 0.7-0.4c7.9 4.4 16.2 7.4 24.5 8.6 0.2 0.1 0.4 0 0.6 0-0.1 1.5 0.3 3.1 1.5 4.2l8.2 8.2c2 2.1 5.3 2.1 7.4 0l27.1-27.1c2-2 2-5.3 0-7.3z"/>
					</g>
					<path id="&lt;Path&gt;" class="s1" d="m352.4 119.4h-301.8c-27.7 0-50.3-22.5-50.3-50.3v-17.9c0-27.8 22.6-50.3 50.3-50.3h301.8c27.7 0 50.3 22.5 50.3 50.3v17.9c0 27.8-22.6 50.3-50.3 50.3z"/>
					<path id="&lt;Path&gt;" class="s2" d="m352.4 104.4h-301.8c-27.7 0-50.3-22.5-50.3-50.3v15c0 27.8 22.6 50.3 50.3 50.3h301.8c27.7 0 50.3-22.5 50.3-50.3v-15c0 27.8-22.6 50.3-50.3 50.3z"/>
					<g id="&lt;Group&gt;">
						<g id="&lt;Group&gt;">
							<g id="&lt;Group&gt;">
								<path id="&lt;Path&gt;" class="s3" d="m392.4 56.2c-2.3 2.1-2.3 5.8-0.1 8l5.2 5.2-7.6-7.7c-2.3-2.2-6-2.4-8.3-0.2-2.3 2.3-2.3 6 0 8.3l6.1 6.1-8.7-8.6c-2.2-2.3-6-2.5-8.3-0.2-2.3 2.2-2.4 6-0.1 8.3l8.1 8.1-22.4-22.5c-5.8-5.7-9.8-5.6-12.2-2.9-2.2 2.4-2 6.4 0.3 8.7l34.4 34.4-2.8-2.8-10.7-1.9c-2.4-0.2-4.7 1.2-5.6 3.5q0 0 0 0c-1 3 1.9 5.8 4.6 7.7 9.8 7.3 21.2 12.6 33.3 14.4 2.6 0.4 5.2-0.5 7-2.3l21.5-21.5c2.6-2.6 3.2-6.7 1.6-10-3-6-7-11.5-11.7-16.3l-15.6-15.6c-2.2-2.2-5.8-2.4-8-0.2z"/>
								<path id="&lt;Compound Path&gt;" fill-rule="evenodd" class="s4" d="m427.1 99.4l-21.4 21.4c-2.2 2.2-5.3 3.2-8.3 2.8-11.6-1.7-23.3-6.8-34-14.7-1.7-1.2-6.7-4.9-5.1-9.4 1.1-3 4-4.8 7.2-4.5q0 0 0.1 0l6 1-28.3-28.2c-2.8-2.9-3-7.8-0.3-10.7 1.3-1.5 2.9-2.3 4.8-2.3 2.8-0.1 6.1 1.7 9.5 5.2l10.2 10.1c0.2-1.6 1-3 2.2-4.1 2.3-2.3 5.9-2.6 8.7-1.1 0.2-1.7 0.9-3.3 2.2-4.5 2.3-2.2 5.8-2.5 8.6-1 0.2-1.7 0.9-3.2 2.1-4.3 2.8-2.7 7.3-2.6 10.1 0.2l15.6 15.6c4.9 4.9 9 10.5 12.1 16.7 1.9 4 1.1 8.7-2 11.8zm-65-0.3q-0.6 0.6-0.9 1.4c-0.6 1.6 0.7 3.6 4 6 10.3 7.6 21.6 12.4 32.7 14.1 2 0.3 4.1-0.4 5.6-1.9l21.5-21.5c2.2-2.1 2.7-5.5 1.3-8.2-2.9-5.9-6.7-11.3-11.4-15.9l-15.6-15.6c-1.6-1.7-4.3-1.8-5.9-0.2-0.8 0.7-1.2 1.8-1.2 2.9 0 1.1 0.4 2.1 1.2 2.9l5.2 5.2c0.6 0.6 0.6 1.5 0 2.1-0.6 0.6-1.6 0.6-2.2 0l-7.6-7.6c-1.7-1.7-4.4-1.8-6.1-0.2-0.9 0.8-1.3 1.9-1.3 3.1 0 1.1 0.4 2.2 1.2 3l6.2 6.2c0.6 0.6 0.6 1.5 0 2.1-0.6 0.6-1.6 0.6-2.2 0l-8.6-8.7c-1.8-1.7-4.5-1.8-6.2-0.2-0.9 0.9-1.3 2-1.4 3.1 0 1.2 0.5 2.3 1.3 3.1l8.1 8.1c0.6 0.6 0.6 1.5 0 2.1-0.6 0.6-1.6 0.6-2.2 0l-22.4-22.4c-3.6-3.6-6-4.3-7.4-4.3q-1.5 0.1-2.6 1.3c-1.6 1.8-1.5 4.8 0.3 6.6l34.4 34.4c0.6 0.6 0.6 1.5 0 2.1-0.6 0.6-1.6 0.6-2.2 0l-2.4-2.4-10.2-1.8c-1.1-0.1-2.3 0.3-3 1.1z"/>
							</g>
							<g id="&lt;Group&gt;">
								<path id="&lt;Path&gt;" class="s1" d="m441.1 107.9l-27.1 27c-1.4 1.5-3.8 1.5-5.2 0l-8.2-8.1c-1.5-1.5-1.5-3.8 0-5.3l27.1-27.1c1.4-1.4 3.8-1.4 5.2 0l8.2 8.2c1.5 1.5 1.5 3.8 0 5.3z"/>
								<path id="&lt;Compound Path&gt;" fill-rule="evenodd" class="s4" d="m442.2 108.9l-27.1 27.1c-2 2.1-5.4 2.1-7.4 0l-8.2-8.2c-2-2-2-5.3 0-7.4l27.1-27.1c2-2 5.4-2 7.4 0l8.2 8.2c2 2.1 2 5.4 0 7.4zm-40.5 13.7c-0.9 0.8-0.9 2.2 0 3.1l8.2 8.2c0.8 0.8 2.2 0.8 3.1 0l27-27.1c0.9-0.9 0.9-2.3 0-3.1l-8.1-8.2c-0.9-0.9-2.3-0.9-3.1 0z"/>
							</g>
							<g id="&lt;Group&gt;">
								<path id="&lt;Path&gt;" class="s4" d="m432.3 103.3c-1.3-1.3-3.3-1.3-4.5 0-1.3 1.2-1.3 3.2 0 4.4 1.2 1.3 3.2 1.3 4.5 0 1.2-1.2 1.2-3.2 0-4.4z"/>
							</g>
						</g>
						<g id="&lt;Group&gt;">
							<g id="&lt;Group&gt;">
								<path id="&lt;Path&gt;" class="s4" d="m333.9 47.5c-0.7-0.6-1.7-0.6-2.4 0.1-0.6 0.7-0.5 1.7 0.2 2.4l4.5 4.1c0.7 0.6 1.7 0.6 2.3-0.1 0.7-0.7 0.6-1.7-0.1-2.3z"/>
							</g>
							<g id="&lt;Group&gt;">
								<path id="&lt;Path&gt;" class="s4" d="m333.1 62.8l-4.2 0.2c-0.9 0.1-1.6 0.8-1.6 1.8 0.1 0.9 0.9 1.6 1.8 1.5l4.1-0.2c0.5 0 0.9-0.2 1.2-0.5 0.2-0.3 0.4-0.7 0.4-1.2-0.1-0.9-0.8-1.6-1.7-1.6z"/>
							</g>
							<g id="&lt;Group&gt;">
								<path id="&lt;Path&gt;" class="s4" d="m336.8 73.5l-4.2 4.6c-0.6 0.6-0.5 1.7 0.1 2.3 0.7 0.6 1.8 0.6 2.4-0.1l4.1-4.6c0.6-0.6 0.6-1.7-0.1-2.3-0.7-0.6-1.7-0.6-2.3 0.1z"/>
							</g>
							<g id="&lt;Group&gt;">
								<path id="&lt;Path&gt;" class="s4" d="m347.8 78.3c-1 0-1.7 0.8-1.6 1.7l0.2 4.7c0 0.9 0.8 1.6 1.7 1.6 0.5-0.1 0.9-0.3 1.2-0.6 0.3-0.3 0.4-0.7 0.4-1.2l-0.2-4.6c-0.1-1-0.8-1.7-1.7-1.6z"/>
							</g>
							<g id="&lt;Group&gt;">
								<path id="&lt;Path&gt;" class="s4" d="m369.7 59.5l-4.5 0.2c-0.9 0-1.6 0.8-1.6 1.7 0.1 0.9 0.8 1.6 1.8 1.6l4.4-0.3c0.5 0 0.9-0.2 1.2-0.5 0.3-0.3 0.4-0.7 0.4-1.2 0-0.9-0.8-1.6-1.7-1.5z"/>
							</g>
							<g id="&lt;Group&gt;">
								<path id="&lt;Path&gt;" class="s4" d="m364.6 45.4c-0.7-0.7-1.7-0.6-2.3 0.1l-4.2 4.5c-0.6 0.7-0.5 1.7 0.2 2.4 0.6 0.6 1.7 0.5 2.3-0.2l4.1-4.5c0.6-0.7 0.6-1.7-0.1-2.3z"/>
							</g>
							<g id="&lt;Group&gt;">
								<path id="&lt;Path&gt;" class="s4" d="m348.2 41.8c-0.9 0.1-1.6 0.8-1.6 1.7l0.2 4.2c0.1 0.9 0.9 1.6 1.8 1.6 0.4-0.1 0.8-0.3 1.1-0.6 0.3-0.3 0.5-0.7 0.4-1.2l-0.2-4.1c0-0.9-0.8-1.6-1.7-1.6z"/>
							</g>
						</g>
					</g>
				</g>
			</g>
		</g>
	</g>
</svg>