<svg version="1.2" xmlns="http://www.w3.org/2000/svg" viewBox="0 0 451 149" width="451" height="149">
	<title>圖層 2</title>
	<style>
		tspan { white-space:pre } 
		.s0 { fill: #c9cacc } 
		.s1 { fill: #ec1c24 } 
		.s2 { fill: #7d0000 } 
		.s3 { fill: #fefefe } 
		.s4 { fill: #292e3d } 
	</style>
	<g id="圖層 2">
		<g id="&lt;Group&gt;">
			<g id="-e-btn_red">
				<g id="&lt;Group&gt;">
					<g id="&lt;Group&gt;" style="mix-blend-mode: multiply">
						<path id="&lt;Path&gt;" class="s0" d="m449.3 112.4l-8.2-8.2c-1-1-2.5-1.5-3.9-1.5 0-1.4-0.3-2.8-1-4.2-3.1-6.2-7.1-11.8-12-16.7l-14.4-14.4v-2.4q0 0 0 0v-2.9c0-27.8-22.5-50.3-50.3-50.3h-301.7c-27.8 0-50.3 22.5-50.3 50.3v17.9c0 15.5 7 29.3 17.9 38.5 1.9 1.6 3.8 3 5.9 4.2q1.9 1.2 3.9 2.2c6.8 3.5 14.5 5.4 22.6 5.4h301.7c7.1 0 13.8-1.4 19.9-4.1q0.3-0.1 0.6-0.3c8 4.4 16.3 7.4 24.6 8.6 0.2 0 0.4 0 0.6 0-0.2 1.5 0.3 3.1 1.5 4.2l8.1 8.2c2.1 2.1 5.4 2.1 7.4 0l27.1-27.1c2.1-2 2.1-5.3 0-7.4z"/>
					</g>
					<path id="&lt;Path&gt;" class="s1" d="m352.9 118.7h-301.8c-27.8 0-50.3-22.5-50.3-50.3v-18c0-27.7 22.5-50.3 50.3-50.3h301.8c27.7 0 50.2 22.6 50.2 50.3v18c0 27.8-22.5 50.3-50.2 50.3z"/>
					<path id="&lt;Path&gt;" class="s2" d="m352.9 103.7h-301.8c-27.8 0-50.3-22.5-50.3-50.3v15c0 27.8 22.5 50.3 50.3 50.3h301.8c27.7 0 50.2-22.5 50.2-50.3v-15c0 27.8-22.5 50.3-50.2 50.3z"/>
					<g id="&lt;Group&gt;">
						<g id="&lt;Group&gt;">
							<g id="&lt;Group&gt;">
								<path id="&lt;Path&gt;" class="s3" d="m392.9 55.4c-2.3 2.2-2.3 5.8-0.1 8l5.2 5.2-7.6-7.6c-2.3-2.2-6-2.4-8.3-0.2-2.3 2.3-2.3 6-0.1 8.3l6.2 6.1-8.7-8.7c-2.3-2.2-6-2.4-8.3-0.2-2.4 2.3-2.4 6.1-0.1 8.4l8.1 8-22.4-22.4c-5.8-5.7-9.8-5.6-12.2-2.9-2.2 2.4-2 6.3 0.3 8.6l34.4 34.4-2.8-2.7-10.7-1.9c-2.4-0.3-4.7 1.2-5.6 3.5q0 0 0 0c-1.1 3 1.9 5.7 4.6 7.7 9.8 7.2 21.2 12.6 33.3 14.4 2.6 0.4 5.2-0.5 7-2.4l21.5-21.4c2.6-2.7 3.2-6.7 1.6-10-3-6-7-11.6-11.7-16.3l-15.7-15.6c-2.1-2.2-5.7-2.4-7.9-0.3z"/>
								<path id="&lt;Compound Path&gt;" fill-rule="evenodd" class="s4" d="m427.6 98.6l-21.4 21.5c-2.2 2.2-5.3 3.2-8.3 2.8-11.6-1.8-23.4-6.8-34-14.7-1.7-1.2-6.7-4.9-5.1-9.4 1.1-3 4-4.8 7.1-4.6q0.1 0 0.2 0.1l5.9 1-28.2-28.2c-2.9-2.9-3-7.8-0.3-10.8 1.3-1.4 2.9-2.2 4.7-2.2 2.9-0.1 6.1 1.7 9.6 5.1l10.2 10.2c0.2-1.6 1-3 2.1-4.2 2.4-2.2 6-2.6 8.8-1 0.2-1.7 0.9-3.3 2.2-4.5 2.3-2.2 5.8-2.6 8.6-1.1 0.2-1.6 0.9-3.1 2.1-4.2 2.8-2.7 7.3-2.6 10.1 0.2l15.6 15.6c4.9 4.9 9 10.5 12 16.7 2 3.9 1.2 8.7-1.9 11.7zm-65.1-0.2q-0.5 0.6-0.8 1.4c-0.6 1.6 0.7 3.5 4 6 10.2 7.5 21.5 12.4 32.6 14.1 2.1 0.3 4.2-0.4 5.7-1.9l21.5-21.5c2.1-2.2 2.7-5.5 1.3-8.2-2.9-5.9-6.8-11.3-11.4-16l-15.6-15.6c-1.7-1.6-4.3-1.7-5.9-0.2-0.8 0.8-1.2 1.8-1.2 2.9 0 1.2 0.4 2.2 1.2 3l5.2 5.2c0.5 0.6 0.5 1.5 0 2.1-0.6 0.6-1.6 0.6-2.2 0l-7.6-7.6c-1.7-1.7-4.5-1.8-6.1-0.2-0.9 0.8-1.3 1.9-1.3 3 0 1.2 0.4 2.3 1.2 3.1l6.2 6.1c0.6 0.6 0.6 1.6 0 2.2-0.6 0.6-1.6 0.6-2.2 0l-8.7-8.7c-1.7-1.7-4.5-1.8-6.2-0.2-0.8 0.8-1.3 1.9-1.3 3.1 0 1.2 0.5 2.3 1.3 3.1l8.1 8.1c0.5 0.6 0.5 1.5 0 2.1-0.6 0.6-1.6 0.6-2.2 0l-22.4-22.4c-3.6-3.6-6-4.3-7.4-4.3q-1.5 0-2.6 1.3c-1.6 1.8-1.5 4.8 0.3 6.6l34.4 34.4c0.6 0.5 0.6 1.5 0 2.1-0.6 0.6-1.6 0.6-2.2 0l-2.4-2.4-10.2-1.8c-1.2-0.1-2.3 0.3-3.1 1.1z"/>
							</g>
							<g id="&lt;Group&gt;">
								<path id="&lt;Path&gt;" class="s1" d="m441.6 107.1l-27.1 27.1c-1.4 1.5-3.8 1.5-5.2 0l-8.2-8.2c-1.5-1.4-1.5-3.8 0-5.2l27.1-27.1c1.4-1.5 3.8-1.5 5.2 0l8.2 8.2c1.4 1.4 1.4 3.8 0 5.2z"/>
								<path id="&lt;Compound Path&gt;" fill-rule="evenodd" class="s4" d="m442.7 108.2l-27.1 27.1c-2.1 2-5.4 2-7.4 0l-8.2-8.2c-2-2-2-5.4 0-7.4l27.1-27.1c2-2 5.3-2 7.4 0l8.2 8.2c2 2 2 5.4 0 7.4zm-40.6 13.7c-0.8 0.8-0.8 2.2 0 3.1l8.2 8.1c0.9 0.9 2.3 0.9 3.1 0l27.1-27c0.9-0.9 0.9-2.3 0-3.1l-8.2-8.2c-0.8-0.9-2.2-0.9-3.1 0z"/>
							</g>
							<g id="&lt;Group&gt;">
								<path id="&lt;Path&gt;" class="s4" d="m432.7 102.5c-1.2-1.2-3.2-1.2-4.4 0-1.3 1.3-1.3 3.3 0 4.5 1.2 1.3 3.2 1.3 4.4 0 1.3-1.2 1.3-3.2 0-4.5z"/>
							</g>
						</g>
						<g id="&lt;Group&gt;">
							<g id="&lt;Group&gt;">
								<path id="&lt;Path&gt;" class="s4" d="m334.4 46.8c-0.7-0.6-1.8-0.6-2.4 0.1-0.6 0.7-0.5 1.7 0.1 2.3l4.6 4.2c0.7 0.6 1.7 0.5 2.3-0.1 0.6-0.7 0.6-1.8-0.1-2.4z"/>
							</g>
							<g id="&lt;Group&gt;">
								<path id="&lt;Path&gt;" class="s4" d="m333.5 62.1l-4.1 0.2c-0.9 0.1-1.6 0.8-1.6 1.7 0.1 0.9 0.8 1.7 1.7 1.6l4.2-0.2c0.5 0 0.9-0.2 1.1-0.5 0.3-0.3 0.5-0.8 0.5-1.2-0.1-0.9-0.8-1.6-1.8-1.6z"/>
							</g>
							<g id="&lt;Group&gt;">
								<path id="&lt;Path&gt;" class="s4" d="m337.3 72.8l-4.2 4.5c-0.6 0.7-0.6 1.8 0.1 2.4 0.7 0.6 1.7 0.5 2.4-0.1l4.1-4.6c0.6-0.7 0.6-1.7-0.1-2.3-0.7-0.6-1.7-0.6-2.3 0.1z"/>
							</g>
							<g id="&lt;Group&gt;">
								<path id="&lt;Path&gt;" class="s4" d="m348.2 77.6c-0.9 0-1.6 0.8-1.5 1.7l0.2 4.7c0 0.9 0.8 1.6 1.7 1.5 0.5 0 0.9-0.2 1.2-0.5 0.2-0.3 0.4-0.7 0.4-1.2l-0.2-4.7c-0.1-0.9-0.9-1.6-1.8-1.5z"/>
							</g>
							<g id="&lt;Group&gt;">
								<path id="&lt;Path&gt;" class="s4" d="m370.2 58.7l-4.5 0.2c-0.9 0.1-1.6 0.9-1.6 1.8 0 0.9 0.8 1.6 1.7 1.5l4.5-0.2c0.5 0 0.9-0.2 1.2-0.5 0.3-0.3 0.4-0.7 0.4-1.2 0-0.9-0.8-1.6-1.7-1.6z"/>
							</g>
							<g id="&lt;Group&gt;">
								<path id="&lt;Path&gt;" class="s4" d="m365.1 44.6c-0.7-0.6-1.7-0.5-2.3 0.1l-4.2 4.6c-0.6 0.7-0.5 1.7 0.1 2.3 0.7 0.6 1.8 0.6 2.4-0.1l4.1-4.5c0.6-0.7 0.6-1.7-0.1-2.4z"/>
							</g>
							<g id="&lt;Group&gt;">
								<path id="&lt;Path&gt;" class="s4" d="m348.7 41.1c-0.9 0-1.6 0.8-1.6 1.7l0.2 4.2c0.1 0.9 0.8 1.6 1.7 1.5 0.5 0 0.9-0.2 1.2-0.5 0.3-0.3 0.4-0.7 0.4-1.2l-0.2-4.1c0-0.9-0.8-1.6-1.7-1.6z"/>
							</g>
						</g>
					</g>
				</g>
			</g>
		</g>
	</g>
</svg>