<svg version="1.2" xmlns="http://www.w3.org/2000/svg" viewBox="0 0 244 83" width="244" height="83"><style>.a{fill:#ec1c24}.b{fill:#fefefe}</style><path class="a" d="m121.8 0.7c-79.2 0-121.3 56.2-121.3 56.2l17.3 11.7c0 0 2.1-5.2 6.8-12.7 0.1 1.9 0.3 3.2 0.3 3.2 3.1 23.6 26 23.1 26 23.1h142.4c0 0 23.2 0.6 26.3-23 0 0 0.2-1.2 0.2-3.1 4.7 7.3 6.8 12.3 6.8 12.3l17.2-11.5c0 0-42.7-56.2-122-56.2z"/><path class="b" d="m216 58.8c0 0-3 18.1-23 18.1h-142.2c-19.9 0-22.7-18.2-22.7-18.2-0.8-4.9 0.1-8.2 1.6-10.5 14.4-18.9 42.9-44.4 92.1-44.4 49.6 0 78.3 25.8 92.7 44.8 1.7 2.1 2.3 5.5 1.5 10.2z"/><path fill-rule="evenodd" class="a" d="m202 57.1l1.3 2.3c0 0-1.5 1.9-6.7 3.9-5.2 2.1-7.4-0.3-8-1.3-0.6-1-1.5-0.2-1.5-0.2-4 2.7-8.4 3.1-10.8 0.8-0.6-0.6-1-1.2-1.3-1.9-1 0.6-2.6 1.5-5 2.5-5.2 2-7.4-0.3-8-1.4-0.6-1-1.5-0.1-1.5-0.1-4 2.6-8.4 3.1-10.8 0.7-1-0.9-1.5-2.1-1.7-3.5-2.1 1.8-7.2 5.2-14.4 5.2-4.8 0-7.8-1.5-9.4-3.6-1.7 0.7-5 2-8.5 3-4.6 1.3-5.7-0.3-6.2-1-0.6-0.8-2-6.3-2-6.3-0.4-1.5-1.2-0.8-1.2-0.8l-2.9 1.8-3.3 6.6h-6.5l1.4-2.7q-2 1-4.5 2.1c-5.2 2-7.4-0.3-8-1.4-0.5-1-1.5-0.1-1.5-0.1-4 2.6-8.4 3.1-10.8 0.7-3.1-2.9-1.9-9 2.5-13.7 4.5-4.6 11.7-6.4 15.5-3l1-1.8h6.6l-6.5 13.5c0 0-0.5 1.3 0.1 1.9 0.7 0.7 2.2 0 2.2 0 1.8-0.7 4.4-2.2 5.7-3l11.1-22.4h6.5l-6.8 13.8c0 0-0.7 2 1.2 1.2l8.3-5.1h6.8l-11.1 7.2c0 0 1.2 6.8 1.5 7.5 0.3 0.8 0.6 2.1 3.3 1.2 0 0 1.8-0.2 5-1.9-0.3-1.6-0.2-3.3 0.3-4.9 1.7-5.5 8.5-11 16.5-10.5 0 0 4.8 0.2 5.1 3.7 0.4 3.5-3.5 8.1-14 12 0 0 1 4.5 10.4 1.7 0 0 4.5-1 8-7.2q0.2-0.3 0.4-0.7 0.1-0.1 0.1-0.2 1-1.6 2.3-3c4.5-4.6 11.7-6.4 15.5-3l6-11.8h6.5l-11.4 23.5c0 0-0.6 1.3 0.1 1.9 0.7 0.7 2.2 0 2.2 0 1.6-0.6 2.8-1.3 3.5-1.8 0.2-2.8 1.7-6 4.2-8.7 4.5-4.6 11.7-6.3 15.5-3l1-1.8h6.6l-6.5 13.5c0 0-0.5 1.3 0.1 2 0.7 0.6 2.2 0 2.2 0 2.5-1 4.1-2.3 4.3-2.4zm-116.9-9.5c-1.7-1.2-4.9 0.4-7.2 3.6-2.2 3.2-2.7 6.8-1 8 1.7 1.2 4.9-0.4 7.1-3.6 2.3-3.2 2.8-6.8 1.1-8zm46.9 7.2c2.9-1 5.5-3.9 6.6-5.5 1.2-1.9 0.2-2.8 0.2-2.8-0.7-0.6-2.1-0.2-2.1-0.2-4.8 2-6.2 7-6.2 7-1 2.6 1.5 1.5 1.5 1.5zm32.5-7.2c-1.6-1.2-4.8 0.4-7.1 3.6-2.3 3.2-2.7 6.8-1 8 1.6 1.2 4.9-0.4 7.1-3.6 2.3-3.2 2.7-6.8 1-8zm26.7 0.1c-1.7-1.2-4.9 0.5-7.2 3.6-2.2 3.2-2.7 6.8-1 8 1.7 1.2 4.9-0.4 7.1-3.6 2.3-3.2 2.8-6.8 1.1-8z"/><path class="a" d="m80.3 39.1l2.4-5.1h-30.4l-2.4 5.1h11.8l-12.2 24.8h7.9l12.2-24.8z"/></svg>